G04 EAGLE Gerber RS-274X export*
G75*
%MOMM*%
%FSLAX34Y34*%
%LPD*%
%INSolderpaste Top*%
%IPPOS*%
%AMOC8*
5,1,8,0,0,1.08239X$1,22.5*%
G01*
%ADD10R,1.500000X1.300000*%
%ADD11R,2.032000X0.660400*%
%ADD12R,1.600000X1.300000*%
%ADD13R,1.300000X1.600000*%
%ADD14R,0.660400X2.032000*%
%ADD15R,1.300000X1.500000*%
%ADD16R,2.200000X0.600000*%


D10*
X434340Y779120D03*
X434340Y760120D03*
D11*
X410464Y614680D03*
X348996Y614680D03*
X410464Y627380D03*
X410464Y640080D03*
X348996Y627380D03*
X348996Y640080D03*
X410464Y652780D03*
X348996Y652780D03*
X410464Y665480D03*
X410464Y678180D03*
X348996Y665480D03*
X348996Y678180D03*
X410464Y690880D03*
X348996Y690880D03*
X410464Y709930D03*
X348996Y709930D03*
X410464Y722630D03*
X410464Y735330D03*
X348996Y722630D03*
X348996Y735330D03*
X410464Y748030D03*
X348996Y748030D03*
X410464Y760730D03*
X410464Y773430D03*
X348996Y760730D03*
X348996Y773430D03*
X410464Y786130D03*
X348996Y786130D03*
D12*
X130810Y540410D03*
X130810Y559410D03*
X109220Y540410D03*
X109220Y559410D03*
X130810Y669900D03*
X130810Y650900D03*
X87630Y650900D03*
X87630Y669900D03*
X731520Y706730D03*
X731520Y687730D03*
D13*
X864210Y810260D03*
X845210Y810260D03*
D12*
X709930Y687730D03*
X709930Y706730D03*
D13*
X906120Y831850D03*
X887120Y831850D03*
D14*
X590550Y790956D03*
X590550Y852424D03*
X603250Y790956D03*
X615950Y790956D03*
X603250Y852424D03*
X615950Y852424D03*
X628650Y790956D03*
X628650Y852424D03*
X641350Y790956D03*
X641350Y852424D03*
X654050Y790956D03*
X666750Y790956D03*
X654050Y852424D03*
X666750Y852424D03*
X679450Y790956D03*
X679450Y852424D03*
X704850Y790956D03*
X704850Y852424D03*
X717550Y790956D03*
X730250Y790956D03*
X717550Y852424D03*
X730250Y852424D03*
X742950Y790956D03*
X742950Y852424D03*
X755650Y790956D03*
X755650Y852424D03*
X768350Y790956D03*
X781050Y790956D03*
X768350Y852424D03*
X781050Y852424D03*
X793750Y790956D03*
X793750Y852424D03*
D15*
X845210Y831850D03*
X864210Y831850D03*
D10*
X751840Y748640D03*
X751840Y729640D03*
D13*
X970890Y684530D03*
X951890Y684530D03*
X970890Y619760D03*
X951890Y619760D03*
X951890Y598170D03*
X970890Y598170D03*
X970890Y554990D03*
X951890Y554990D03*
D15*
X951890Y641350D03*
X970890Y641350D03*
X970890Y662940D03*
X951890Y662940D03*
X951890Y576580D03*
X970890Y576580D03*
X927710Y538480D03*
X908710Y538480D03*
D13*
X1010310Y574040D03*
X1029310Y574040D03*
X955700Y509270D03*
X974700Y509270D03*
X1010310Y509270D03*
X1029310Y509270D03*
X988670Y466090D03*
X969670Y466090D03*
D15*
X1029310Y530860D03*
X1010310Y530860D03*
X1010310Y552450D03*
X1029310Y552450D03*
X969670Y487680D03*
X988670Y487680D03*
X969670Y444500D03*
X988670Y444500D03*
D13*
X600050Y596900D03*
X581050Y596900D03*
X669900Y561340D03*
X650900Y561340D03*
X669900Y539750D03*
X650900Y539750D03*
D12*
X715010Y475640D03*
X715010Y494640D03*
D13*
X669900Y518160D03*
X650900Y518160D03*
X669900Y496570D03*
X650900Y496570D03*
D15*
X555650Y662940D03*
X574650Y662940D03*
D10*
X621030Y587350D03*
X621030Y568350D03*
X693420Y494640D03*
X693420Y475640D03*
X671830Y474320D03*
X671830Y455320D03*
X464820Y522580D03*
X464820Y503580D03*
D15*
X951890Y533400D03*
X970890Y533400D03*
D10*
X915670Y625500D03*
X915670Y644500D03*
D15*
X884530Y538480D03*
X865530Y538480D03*
X865530Y458470D03*
X884530Y458470D03*
X669900Y582930D03*
X650900Y582930D03*
D10*
X182880Y767740D03*
X182880Y786740D03*
X180340Y836320D03*
X180340Y855320D03*
D12*
X152400Y650900D03*
X152400Y669900D03*
X195580Y650900D03*
X195580Y669900D03*
X173990Y650900D03*
X173990Y669900D03*
X109220Y627990D03*
X109220Y608990D03*
X130810Y608990D03*
X130810Y627990D03*
X87630Y627990D03*
X87630Y608990D03*
D10*
X204470Y767740D03*
X204470Y786740D03*
X223520Y525170D03*
X223520Y544170D03*
X109220Y650900D03*
X109220Y669900D03*
D12*
X730250Y748640D03*
X730250Y729640D03*
D10*
X87630Y540410D03*
X87630Y559410D03*
D16*
X154340Y596900D03*
X206340Y596900D03*
X154340Y609600D03*
X154340Y584200D03*
X154340Y571500D03*
X206340Y609600D03*
X206340Y584200D03*
X206340Y571500D03*
X875700Y582930D03*
X927700Y582930D03*
X875700Y595630D03*
X875700Y570230D03*
X875700Y557530D03*
X927700Y595630D03*
X927700Y570230D03*
X927700Y557530D03*
X875700Y504190D03*
X927700Y504190D03*
X875700Y516890D03*
X875700Y491490D03*
X875700Y478790D03*
X927700Y516890D03*
X927700Y491490D03*
X927700Y478790D03*
X597500Y541020D03*
X545500Y541020D03*
X597500Y528320D03*
X597500Y553720D03*
X597500Y566420D03*
X545500Y528320D03*
X545500Y553720D03*
X545500Y566420D03*
D13*
X504800Y403860D03*
X485800Y403860D03*
X485800Y426720D03*
X504800Y426720D03*
X479450Y608330D03*
X498450Y608330D03*
D12*
X617220Y621690D03*
X617220Y640690D03*
D13*
X616560Y662940D03*
X597560Y662940D03*
D12*
X631190Y689000D03*
X631190Y708000D03*
X497840Y732130D03*
X497840Y713130D03*
X497840Y690220D03*
X497840Y671220D03*
X528320Y779120D03*
X528320Y760120D03*
D15*
X300380Y704850D03*
X319380Y704850D03*
D10*
X346720Y578350D03*
X346720Y597350D03*
D15*
X136500Y885190D03*
X117500Y885190D03*
X215240Y885190D03*
X196240Y885190D03*
D13*
X535330Y505460D03*
X554330Y505460D03*
D12*
X650240Y474320D03*
X650240Y455320D03*
D16*
X597500Y458470D03*
X545500Y458470D03*
X597500Y445770D03*
X597500Y471170D03*
X597500Y483870D03*
X545500Y445770D03*
X545500Y471170D03*
X545500Y483870D03*
X591150Y695960D03*
X539150Y695960D03*
X591150Y683260D03*
X591150Y708660D03*
X591150Y721360D03*
X539150Y683260D03*
X539150Y708660D03*
X539150Y721360D03*
D12*
X455930Y779120D03*
X455930Y760120D03*
D15*
X527710Y426720D03*
X546710Y426720D03*
X621640Y505460D03*
X602640Y505460D03*
D10*
X474980Y719480D03*
X474980Y738480D03*
D15*
X572160Y739140D03*
X591160Y739140D03*
M02*
