G04 EAGLE Gerber RS-274X export*
G75*
%MOMM*%
%FSLAX34Y34*%
%LPD*%
%IN*%
%IPPOS*%
%AMOC8*
5,1,8,0,0,1.08239X$1,22.5*%
G01*
%ADD10C,0.254000*%


D10*
X0Y300000D02*
X1300000Y300000D01*
X1300000Y1000000D01*
X0Y1000000D01*
X0Y300000D01*
X65000Y349464D02*
X64924Y348396D01*
X64771Y347335D01*
X64543Y346288D01*
X64241Y345260D01*
X63867Y344256D01*
X63422Y343281D01*
X62908Y342341D01*
X62329Y341440D01*
X61687Y340582D01*
X60985Y339772D01*
X60228Y339015D01*
X59418Y338313D01*
X58560Y337671D01*
X57659Y337092D01*
X56719Y336578D01*
X55744Y336133D01*
X54740Y335759D01*
X53712Y335457D01*
X52665Y335229D01*
X51604Y335076D01*
X50536Y335000D01*
X49464Y335000D01*
X48396Y335076D01*
X47335Y335229D01*
X46288Y335457D01*
X45260Y335759D01*
X44256Y336133D01*
X43281Y336578D01*
X42341Y337092D01*
X41440Y337671D01*
X40582Y338313D01*
X39772Y339015D01*
X39015Y339772D01*
X38313Y340582D01*
X37671Y341440D01*
X37092Y342341D01*
X36578Y343281D01*
X36133Y344256D01*
X35759Y345260D01*
X35457Y346288D01*
X35229Y347335D01*
X35076Y348396D01*
X35000Y349464D01*
X35000Y350536D01*
X35076Y351604D01*
X35229Y352665D01*
X35457Y353712D01*
X35759Y354740D01*
X36133Y355744D01*
X36578Y356719D01*
X37092Y357659D01*
X37671Y358560D01*
X38313Y359418D01*
X39015Y360228D01*
X39772Y360985D01*
X40582Y361687D01*
X41440Y362329D01*
X42341Y362908D01*
X43281Y363422D01*
X44256Y363867D01*
X45260Y364241D01*
X46288Y364543D01*
X47335Y364771D01*
X48396Y364924D01*
X49464Y365000D01*
X50536Y365000D01*
X51604Y364924D01*
X52665Y364771D01*
X53712Y364543D01*
X54740Y364241D01*
X55744Y363867D01*
X56719Y363422D01*
X57659Y362908D01*
X58560Y362329D01*
X59418Y361687D01*
X60228Y360985D01*
X60985Y360228D01*
X61687Y359418D01*
X62329Y358560D01*
X62908Y357659D01*
X63422Y356719D01*
X63867Y355744D01*
X64241Y354740D01*
X64543Y353712D01*
X64771Y352665D01*
X64924Y351604D01*
X65000Y350536D01*
X65000Y349464D01*
X65000Y949464D02*
X64924Y948396D01*
X64771Y947335D01*
X64543Y946288D01*
X64241Y945260D01*
X63867Y944256D01*
X63422Y943281D01*
X62908Y942341D01*
X62329Y941440D01*
X61687Y940582D01*
X60985Y939772D01*
X60228Y939015D01*
X59418Y938313D01*
X58560Y937671D01*
X57659Y937092D01*
X56719Y936578D01*
X55744Y936133D01*
X54740Y935759D01*
X53712Y935457D01*
X52665Y935229D01*
X51604Y935076D01*
X50536Y935000D01*
X49464Y935000D01*
X48396Y935076D01*
X47335Y935229D01*
X46288Y935457D01*
X45260Y935759D01*
X44256Y936133D01*
X43281Y936578D01*
X42341Y937092D01*
X41440Y937671D01*
X40582Y938313D01*
X39772Y939015D01*
X39015Y939772D01*
X38313Y940582D01*
X37671Y941440D01*
X37092Y942341D01*
X36578Y943281D01*
X36133Y944256D01*
X35759Y945260D01*
X35457Y946288D01*
X35229Y947335D01*
X35076Y948396D01*
X35000Y949464D01*
X35000Y950536D01*
X35076Y951604D01*
X35229Y952665D01*
X35457Y953712D01*
X35759Y954740D01*
X36133Y955744D01*
X36578Y956719D01*
X37092Y957659D01*
X37671Y958560D01*
X38313Y959418D01*
X39015Y960228D01*
X39772Y960985D01*
X40582Y961687D01*
X41440Y962329D01*
X42341Y962908D01*
X43281Y963422D01*
X44256Y963867D01*
X45260Y964241D01*
X46288Y964543D01*
X47335Y964771D01*
X48396Y964924D01*
X49464Y965000D01*
X50536Y965000D01*
X51604Y964924D01*
X52665Y964771D01*
X53712Y964543D01*
X54740Y964241D01*
X55744Y963867D01*
X56719Y963422D01*
X57659Y962908D01*
X58560Y962329D01*
X59418Y961687D01*
X60228Y960985D01*
X60985Y960228D01*
X61687Y959418D01*
X62329Y958560D01*
X62908Y957659D01*
X63422Y956719D01*
X63867Y955744D01*
X64241Y954740D01*
X64543Y953712D01*
X64771Y952665D01*
X64924Y951604D01*
X65000Y950536D01*
X65000Y949464D01*
X1265000Y949464D02*
X1264924Y948396D01*
X1264771Y947335D01*
X1264543Y946288D01*
X1264241Y945260D01*
X1263867Y944256D01*
X1263422Y943281D01*
X1262908Y942341D01*
X1262329Y941440D01*
X1261687Y940582D01*
X1260985Y939772D01*
X1260228Y939015D01*
X1259418Y938313D01*
X1258560Y937671D01*
X1257659Y937092D01*
X1256719Y936578D01*
X1255744Y936133D01*
X1254740Y935759D01*
X1253712Y935457D01*
X1252665Y935229D01*
X1251604Y935076D01*
X1250536Y935000D01*
X1249464Y935000D01*
X1248396Y935076D01*
X1247335Y935229D01*
X1246288Y935457D01*
X1245260Y935759D01*
X1244256Y936133D01*
X1243281Y936578D01*
X1242341Y937092D01*
X1241440Y937671D01*
X1240582Y938313D01*
X1239772Y939015D01*
X1239015Y939772D01*
X1238313Y940582D01*
X1237671Y941440D01*
X1237092Y942341D01*
X1236578Y943281D01*
X1236133Y944256D01*
X1235759Y945260D01*
X1235457Y946288D01*
X1235229Y947335D01*
X1235076Y948396D01*
X1235000Y949464D01*
X1235000Y950536D01*
X1235076Y951604D01*
X1235229Y952665D01*
X1235457Y953712D01*
X1235759Y954740D01*
X1236133Y955744D01*
X1236578Y956719D01*
X1237092Y957659D01*
X1237671Y958560D01*
X1238313Y959418D01*
X1239015Y960228D01*
X1239772Y960985D01*
X1240582Y961687D01*
X1241440Y962329D01*
X1242341Y962908D01*
X1243281Y963422D01*
X1244256Y963867D01*
X1245260Y964241D01*
X1246288Y964543D01*
X1247335Y964771D01*
X1248396Y964924D01*
X1249464Y965000D01*
X1250536Y965000D01*
X1251604Y964924D01*
X1252665Y964771D01*
X1253712Y964543D01*
X1254740Y964241D01*
X1255744Y963867D01*
X1256719Y963422D01*
X1257659Y962908D01*
X1258560Y962329D01*
X1259418Y961687D01*
X1260228Y960985D01*
X1260985Y960228D01*
X1261687Y959418D01*
X1262329Y958560D01*
X1262908Y957659D01*
X1263422Y956719D01*
X1263867Y955744D01*
X1264241Y954740D01*
X1264543Y953712D01*
X1264771Y952665D01*
X1264924Y951604D01*
X1265000Y950536D01*
X1265000Y949464D01*
X1265000Y349464D02*
X1264924Y348396D01*
X1264771Y347335D01*
X1264543Y346288D01*
X1264241Y345260D01*
X1263867Y344256D01*
X1263422Y343281D01*
X1262908Y342341D01*
X1262329Y341440D01*
X1261687Y340582D01*
X1260985Y339772D01*
X1260228Y339015D01*
X1259418Y338313D01*
X1258560Y337671D01*
X1257659Y337092D01*
X1256719Y336578D01*
X1255744Y336133D01*
X1254740Y335759D01*
X1253712Y335457D01*
X1252665Y335229D01*
X1251604Y335076D01*
X1250536Y335000D01*
X1249464Y335000D01*
X1248396Y335076D01*
X1247335Y335229D01*
X1246288Y335457D01*
X1245260Y335759D01*
X1244256Y336133D01*
X1243281Y336578D01*
X1242341Y337092D01*
X1241440Y337671D01*
X1240582Y338313D01*
X1239772Y339015D01*
X1239015Y339772D01*
X1238313Y340582D01*
X1237671Y341440D01*
X1237092Y342341D01*
X1236578Y343281D01*
X1236133Y344256D01*
X1235759Y345260D01*
X1235457Y346288D01*
X1235229Y347335D01*
X1235076Y348396D01*
X1235000Y349464D01*
X1235000Y350536D01*
X1235076Y351604D01*
X1235229Y352665D01*
X1235457Y353712D01*
X1235759Y354740D01*
X1236133Y355744D01*
X1236578Y356719D01*
X1237092Y357659D01*
X1237671Y358560D01*
X1238313Y359418D01*
X1239015Y360228D01*
X1239772Y360985D01*
X1240582Y361687D01*
X1241440Y362329D01*
X1242341Y362908D01*
X1243281Y363422D01*
X1244256Y363867D01*
X1245260Y364241D01*
X1246288Y364543D01*
X1247335Y364771D01*
X1248396Y364924D01*
X1249464Y365000D01*
X1250536Y365000D01*
X1251604Y364924D01*
X1252665Y364771D01*
X1253712Y364543D01*
X1254740Y364241D01*
X1255744Y363867D01*
X1256719Y363422D01*
X1257659Y362908D01*
X1258560Y362329D01*
X1259418Y361687D01*
X1260228Y360985D01*
X1260985Y360228D01*
X1261687Y359418D01*
X1262329Y358560D01*
X1262908Y357659D01*
X1263422Y356719D01*
X1263867Y355744D01*
X1264241Y354740D01*
X1264543Y353712D01*
X1264771Y352665D01*
X1264924Y351604D01*
X1265000Y350536D01*
X1265000Y349464D01*
M02*
