G04 EAGLE Gerber RS-274X export*
G75*
%MOMM*%
%FSLAX34Y34*%
%LPD*%
%INSoldermask Top*%
%IPPOS*%
%AMOC8*
5,1,8,0,0,1.08239X$1,22.5*%
G01*
%ADD10C,3.203200*%
%ADD11R,1.703200X1.503200*%
%ADD12R,2.235200X0.863600*%
%ADD13R,1.803200X1.503200*%
%ADD14R,1.503200X1.803200*%
%ADD15R,0.863600X2.235200*%
%ADD16C,2.133600*%
%ADD17R,1.503200X1.703200*%
%ADD18C,2.743200*%
%ADD19C,1.524000*%
%ADD20P,1.951982X8X112.500000*%
%ADD21C,1.803400*%
%ADD22P,1.649562X8X22.500000*%
%ADD23R,2.403200X0.803200*%
%ADD24P,1.869504X8X292.500000*%
%ADD25P,1.759533X8X112.500000*%
%ADD26C,1.625600*%
%ADD27C,1.209600*%


D10*
X50000Y350000D03*
X50000Y950000D03*
X1250000Y950000D03*
X1250000Y350000D03*
D11*
X434340Y779120D03*
X434340Y760120D03*
D12*
X410464Y614680D03*
X348996Y614680D03*
X410464Y627380D03*
X410464Y640080D03*
X348996Y627380D03*
X348996Y640080D03*
X410464Y652780D03*
X348996Y652780D03*
X410464Y665480D03*
X410464Y678180D03*
X348996Y665480D03*
X348996Y678180D03*
X410464Y690880D03*
X348996Y690880D03*
X410464Y709930D03*
X348996Y709930D03*
X410464Y722630D03*
X410464Y735330D03*
X348996Y722630D03*
X348996Y735330D03*
X410464Y748030D03*
X348996Y748030D03*
X410464Y760730D03*
X410464Y773430D03*
X348996Y760730D03*
X348996Y773430D03*
X410464Y786130D03*
X348996Y786130D03*
D13*
X130810Y540410D03*
X130810Y559410D03*
X109220Y540410D03*
X109220Y559410D03*
X130810Y669900D03*
X130810Y650900D03*
X87630Y650900D03*
X87630Y669900D03*
X731520Y706730D03*
X731520Y687730D03*
D14*
X864210Y810260D03*
X845210Y810260D03*
D13*
X709930Y687730D03*
X709930Y706730D03*
D14*
X906120Y831850D03*
X887120Y831850D03*
D15*
X590550Y790956D03*
X590550Y852424D03*
X603250Y790956D03*
X615950Y790956D03*
X603250Y852424D03*
X615950Y852424D03*
X628650Y790956D03*
X628650Y852424D03*
X641350Y790956D03*
X641350Y852424D03*
X654050Y790956D03*
X666750Y790956D03*
X654050Y852424D03*
X666750Y852424D03*
X679450Y790956D03*
X679450Y852424D03*
X704850Y790956D03*
X704850Y852424D03*
X717550Y790956D03*
X730250Y790956D03*
X717550Y852424D03*
X730250Y852424D03*
X742950Y790956D03*
X742950Y852424D03*
X755650Y790956D03*
X755650Y852424D03*
X768350Y790956D03*
X781050Y790956D03*
X768350Y852424D03*
X781050Y852424D03*
X793750Y790956D03*
X793750Y852424D03*
D16*
X47752Y584200D02*
X28448Y584200D01*
X28448Y609600D02*
X47752Y609600D01*
X47752Y508000D02*
X28448Y508000D01*
X28448Y482600D02*
X47752Y482600D01*
X47752Y685800D02*
X28448Y685800D01*
X28448Y711200D02*
X47752Y711200D01*
X47752Y635000D02*
X28448Y635000D01*
X28448Y660400D02*
X47752Y660400D01*
D17*
X845210Y831850D03*
X864210Y831850D03*
D11*
X751840Y748640D03*
X751840Y729640D03*
D18*
X114300Y952500D03*
X165100Y952500D03*
X215900Y952500D03*
D14*
X970890Y684530D03*
X951890Y684530D03*
X970890Y619760D03*
X951890Y619760D03*
X951890Y598170D03*
X970890Y598170D03*
X970890Y554990D03*
X951890Y554990D03*
D17*
X951890Y641350D03*
X970890Y641350D03*
X970890Y662940D03*
X951890Y662940D03*
X951890Y576580D03*
X970890Y576580D03*
X927710Y538480D03*
X908710Y538480D03*
D14*
X1010310Y574040D03*
X1029310Y574040D03*
X955700Y509270D03*
X974700Y509270D03*
X1010310Y509270D03*
X1029310Y509270D03*
X988670Y466090D03*
X969670Y466090D03*
D17*
X1029310Y530860D03*
X1010310Y530860D03*
X1010310Y552450D03*
X1029310Y552450D03*
X969670Y487680D03*
X988670Y487680D03*
X969670Y444500D03*
X988670Y444500D03*
D14*
X600050Y596900D03*
X581050Y596900D03*
X669900Y561340D03*
X650900Y561340D03*
X669900Y539750D03*
X650900Y539750D03*
D13*
X715010Y475640D03*
X715010Y494640D03*
D14*
X669900Y518160D03*
X650900Y518160D03*
X669900Y496570D03*
X650900Y496570D03*
D17*
X555650Y662940D03*
X574650Y662940D03*
D11*
X621030Y587350D03*
X621030Y568350D03*
X693420Y494640D03*
X693420Y475640D03*
X671830Y474320D03*
X671830Y455320D03*
D19*
X745236Y476250D02*
X758444Y476250D01*
X758444Y527050D02*
X745236Y527050D01*
X745236Y501650D02*
X758444Y501650D01*
D11*
X464820Y522580D03*
X464820Y503580D03*
D17*
X951890Y533400D03*
X970890Y533400D03*
D11*
X915670Y625500D03*
X915670Y644500D03*
D17*
X884530Y538480D03*
X865530Y538480D03*
X865530Y458470D03*
X884530Y458470D03*
X669900Y582930D03*
X650900Y582930D03*
D11*
X182880Y767740D03*
X182880Y786740D03*
D20*
X135890Y792480D03*
D21*
X135890Y767080D03*
D20*
X138430Y857250D03*
D21*
X138430Y831850D03*
D11*
X180340Y836320D03*
X180340Y855320D03*
D13*
X152400Y650900D03*
X152400Y669900D03*
X195580Y650900D03*
X195580Y669900D03*
X173990Y650900D03*
X173990Y669900D03*
X109220Y627990D03*
X109220Y608990D03*
X130810Y608990D03*
X130810Y627990D03*
X87630Y627990D03*
X87630Y608990D03*
D22*
X85090Y584200D03*
X110490Y584200D03*
D11*
X204470Y767740D03*
X204470Y786740D03*
X223520Y525170D03*
X223520Y544170D03*
X109220Y650900D03*
X109220Y669900D03*
D13*
X730250Y748640D03*
X730250Y729640D03*
D11*
X87630Y540410D03*
X87630Y559410D03*
D23*
X154340Y596900D03*
X206340Y596900D03*
X154340Y609600D03*
X154340Y584200D03*
X154340Y571500D03*
X206340Y609600D03*
X206340Y584200D03*
X206340Y571500D03*
X875700Y582930D03*
X927700Y582930D03*
X875700Y595630D03*
X875700Y570230D03*
X875700Y557530D03*
X927700Y595630D03*
X927700Y570230D03*
X927700Y557530D03*
X875700Y504190D03*
X927700Y504190D03*
X875700Y516890D03*
X875700Y491490D03*
X875700Y478790D03*
X927700Y516890D03*
X927700Y491490D03*
X927700Y478790D03*
X597500Y541020D03*
X545500Y541020D03*
X597500Y528320D03*
X597500Y553720D03*
X597500Y566420D03*
X545500Y528320D03*
X545500Y553720D03*
X545500Y566420D03*
D16*
X1124458Y430530D02*
X1143762Y430530D01*
X1143762Y455930D02*
X1124458Y455930D01*
X1124458Y481330D02*
X1143762Y481330D01*
X1175258Y341630D02*
X1194562Y341630D01*
X1194562Y367030D02*
X1175258Y367030D01*
X1175258Y392430D02*
X1194562Y392430D01*
D18*
X50800Y762000D03*
X50800Y812800D03*
X50800Y863600D03*
X787400Y952500D03*
X838200Y952500D03*
X889000Y952500D03*
X622300Y952500D03*
X673100Y952500D03*
X723900Y952500D03*
X457200Y952500D03*
X508000Y952500D03*
X558800Y952500D03*
X292100Y952500D03*
X342900Y952500D03*
X393700Y952500D03*
X1252220Y721360D03*
X1252220Y670560D03*
X1252220Y619760D03*
X1252220Y886460D03*
X1252220Y835660D03*
X1252220Y784860D03*
X952500Y952500D03*
X1003300Y952500D03*
X1054100Y952500D03*
D14*
X504800Y403860D03*
X485800Y403860D03*
X485800Y426720D03*
X504800Y426720D03*
X479450Y608330D03*
X498450Y608330D03*
D22*
X472440Y640080D03*
X497840Y640080D03*
D13*
X617220Y621690D03*
X617220Y640690D03*
D14*
X616560Y662940D03*
X597560Y662940D03*
D13*
X631190Y689000D03*
X631190Y708000D03*
D22*
X530860Y640080D03*
X556260Y640080D03*
D13*
X497840Y732130D03*
X497840Y713130D03*
X497840Y690220D03*
X497840Y671220D03*
X528320Y779120D03*
X528320Y760120D03*
D22*
X478790Y763270D03*
X504190Y763270D03*
D16*
X47752Y533400D02*
X28448Y533400D01*
X28448Y558800D02*
X47752Y558800D01*
X1124458Y392430D02*
X1143762Y392430D01*
X1143762Y367030D02*
X1124458Y367030D01*
X1124458Y341630D02*
X1143762Y341630D01*
X1175258Y481330D02*
X1194562Y481330D01*
X1194562Y455930D02*
X1175258Y455930D01*
X1175258Y430530D02*
X1194562Y430530D01*
D24*
X1235710Y481330D03*
X1235710Y455930D03*
X1235710Y430530D03*
X1235710Y405130D03*
X1261110Y481330D03*
X1261110Y455930D03*
X1261110Y430530D03*
X1261110Y405130D03*
D25*
X63500Y406400D03*
X38100Y406400D03*
X63500Y431800D03*
X38100Y431800D03*
X63500Y457200D03*
X38100Y457200D03*
D17*
X300380Y704850D03*
X319380Y704850D03*
D11*
X346720Y578350D03*
X346720Y597350D03*
D17*
X136500Y885190D03*
X117500Y885190D03*
X215240Y885190D03*
X196240Y885190D03*
D14*
X535330Y505460D03*
X554330Y505460D03*
D13*
X650240Y474320D03*
X650240Y455320D03*
D16*
X1175258Y519430D02*
X1194562Y519430D01*
X1194562Y544830D02*
X1175258Y544830D01*
X1175258Y570230D02*
X1194562Y570230D01*
X1226058Y570230D02*
X1245362Y570230D01*
X1245362Y544830D02*
X1226058Y544830D01*
X1226058Y519430D02*
X1245362Y519430D01*
X1143762Y570230D02*
X1124458Y570230D01*
X1124458Y544830D02*
X1143762Y544830D01*
X1143762Y519430D02*
X1124458Y519430D01*
D23*
X597500Y458470D03*
X545500Y458470D03*
X597500Y445770D03*
X597500Y471170D03*
X597500Y483870D03*
X545500Y445770D03*
X545500Y471170D03*
X545500Y483870D03*
X591150Y695960D03*
X539150Y695960D03*
X591150Y683260D03*
X591150Y708660D03*
X591150Y721360D03*
X539150Y683260D03*
X539150Y708660D03*
X539150Y721360D03*
D13*
X455930Y779120D03*
X455930Y760120D03*
D17*
X527710Y426720D03*
X546710Y426720D03*
X621640Y505460D03*
X602640Y505460D03*
D11*
X474980Y719480D03*
X474980Y738480D03*
D17*
X572160Y739140D03*
X591160Y739140D03*
D26*
X981710Y737108D02*
X981710Y751332D01*
X1007110Y751332D02*
X1007110Y737108D01*
X1032510Y737108D02*
X1032510Y751332D01*
X1057910Y751332D02*
X1057910Y737108D01*
X740410Y629412D02*
X740410Y615188D01*
X765810Y615188D02*
X765810Y629412D01*
X791210Y629412D02*
X791210Y615188D01*
X816610Y615188D02*
X816610Y629412D01*
D18*
X137160Y708660D03*
X195580Y713740D03*
X759460Y706120D03*
X683260Y878840D03*
X707390Y750570D03*
X165100Y508000D03*
X185420Y530860D03*
X543560Y596900D03*
X835660Y500380D03*
X850900Y622300D03*
D27*
X448310Y603250D03*
X296624Y596793D03*
X295910Y482600D03*
X411480Y508000D03*
X706120Y773430D03*
X618490Y773430D03*
X628650Y869950D03*
X755650Y869950D03*
X706120Y869950D03*
X679450Y824024D03*
X664210Y824024D03*
X673100Y661670D03*
X68580Y669496D03*
X662940Y670560D03*
X767080Y762000D03*
X795020Y762000D03*
X742950Y833120D03*
X824436Y833120D03*
X845820Y848360D03*
X947420Y848360D03*
X947420Y763270D03*
X196850Y745490D03*
X477520Y779780D03*
X173990Y689610D03*
X779780Y731520D03*
X303530Y651304D03*
X427990Y640080D03*
X255888Y614985D03*
X254000Y393700D03*
X331470Y627380D03*
X246792Y626110D03*
X247650Y443436D03*
X372110Y433070D03*
X130810Y687070D03*
X392430Y786130D03*
X428072Y627298D03*
X237696Y605790D03*
X234744Y452532D03*
X641350Y880110D03*
X572358Y844550D03*
X645160Y755238D03*
X605124Y773732D03*
X603250Y889206D03*
X708660Y889206D03*
X654050Y880110D03*
X871220Y880110D03*
X815340Y764334D03*
X632254Y766874D03*
X730250Y900430D03*
X754380Y773430D03*
X937260Y773430D03*
X721360Y889206D03*
X922020Y802640D03*
X919480Y889000D03*
X718820Y773430D03*
X1193800Y886460D03*
X1191260Y792480D03*
X768350Y869950D03*
X1182164Y868680D03*
X1183640Y619760D03*
X740410Y773430D03*
X863600Y753110D03*
X309880Y680514D03*
X863600Y678180D03*
X387556Y712470D03*
X690880Y718820D03*
X148590Y539750D03*
X274320Y541020D03*
X332740Y793750D03*
X285937Y792686D03*
X367030Y773430D03*
X243840Y797560D03*
X243840Y702310D03*
X284480Y699770D03*
X284480Y574040D03*
X527050Y445770D03*
X482600Y445770D03*
X482600Y579120D03*
X527050Y528320D03*
X482600Y528320D03*
X924560Y608330D03*
X908050Y521970D03*
X829310Y521970D03*
X829310Y595932D03*
X480060Y698706D03*
X516842Y698754D03*
X222250Y562610D03*
X226060Y734060D03*
X132080Y580390D03*
X597500Y577579D03*
X497840Y576580D03*
X498904Y486616D03*
X584200Y505460D03*
X896620Y557530D03*
X895350Y478790D03*
X815340Y478790D03*
X815642Y577579D03*
X636270Y577579D03*
X610870Y736188D03*
X876300Y618490D03*
X934720Y619760D03*
X891540Y662940D03*
X934720Y662940D03*
X909320Y581660D03*
X1067864Y581660D03*
X1067864Y429054D03*
X991870Y509270D03*
X855980Y504190D03*
X855980Y491490D03*
X1047750Y552450D03*
X949960Y490220D03*
X1023620Y316843D03*
X1023620Y477520D03*
X632460Y533400D03*
X713740Y513080D03*
X689610Y457200D03*
X508000Y474980D03*
X508000Y566420D03*
X527050Y566420D03*
X187960Y584200D03*
X195580Y623570D03*
X457406Y621030D03*
X679450Y621030D03*
X178864Y552244D03*
X590550Y833120D03*
X704850Y833120D03*
X824436Y807720D03*
X154387Y633177D03*
X748030Y687070D03*
X240665Y869315D03*
X825500Y687070D03*
X331470Y640080D03*
X265430Y755856D03*
X313690Y751840D03*
X781050Y808990D03*
X678447Y809993D03*
X278130Y804593D03*
X610870Y708660D03*
X690880Y701040D03*
X690880Y629920D03*
X427273Y699053D03*
X467360Y698706D03*
X1046480Y530860D03*
X1165890Y495602D03*
X934720Y699770D03*
X1076960Y698500D03*
X1076960Y342900D03*
X88900Y523240D03*
X632460Y607060D03*
X1087120Y642620D03*
X1087120Y368300D03*
X563880Y458470D03*
X1158240Y327660D03*
X566420Y347980D03*
X331470Y722630D03*
X264984Y722630D03*
X264160Y405130D03*
X572564Y546100D03*
X692150Y513080D03*
X1095804Y447430D03*
X1099820Y584200D03*
X633730Y483870D03*
X577850Y481940D03*
X615950Y445770D03*
X654050Y438150D03*
X1104900Y439420D03*
M02*
