M48
;GenerationSoftware,Autodesk,EAGLE,9.6.2*%
;CreationDate,2023-01-20T09:29:16Z*%
FMAT,2
ICI,OFF
METRIC,TZ,000.000
T8C0.600
T7C0.813
T6C0.914
T5C1.016
T4C1.100
T3C1.300
T2C3.000
%
G90
M71
T2
X5000Y35000
X5000Y95000
X125000Y95000
X125000Y35000
T3
X34290Y95250
X39370Y95250
X125222Y72136
X125222Y67056
X11430Y95250
X16510Y95250
X125222Y61976
X125222Y88646
X125222Y83566
X125222Y78486
X95250Y95250
X100330Y95250
X105410Y95250
X21590Y95250
X29210Y95250
X55880Y95250
X50800Y95250
X45720Y95250
X72390Y95250
X67310Y95250
X62230Y95250
X88900Y95250
X83820Y95250
X78740Y95250
X5080Y86360
X5080Y81280
X5080Y76200
T4
X3810Y53340
X113411Y43053
X113411Y45593
X113411Y48133
X118491Y34163
X118491Y36703
X118491Y39243
X113411Y39243
X3810Y58420
X3810Y60960
X3810Y50800
X3810Y48260
X113411Y51943
X113411Y54483
X113411Y57023
X123571Y51943
X123571Y54483
X123571Y57023
X118491Y57023
X118491Y54483
X118491Y51943
X3810Y68580
X3810Y71120
X3810Y66040
X3810Y55880
X113411Y36703
X113411Y34163
X118491Y48133
X118491Y45593
X118491Y43053
X3810Y63500
T5
X123571Y45593
X123571Y48133
X123571Y43053
X123571Y40513
X126111Y48133
X126111Y45593
X126111Y43053
X126111Y40513
T6
X81661Y62230
X79121Y62230
X76581Y62230
X74041Y62230
X105791Y74422
X103251Y74422
X100711Y74422
X98171Y74422
X3810Y45720
X6350Y45720
X3810Y43180
X6350Y43180
X3810Y40640
X6350Y40640
T7
X49784Y64008
X47244Y64008
X75184Y47625
X50419Y76327
X53086Y64008
X55626Y64008
X47879Y76327
X11049Y58420
X8509Y58420
X13843Y83185
X13843Y85725
X13589Y76708
X13589Y79248
X75184Y50165
X75184Y52705
T8
X108712Y64262
X63246Y60706
X8890Y52324
X107696Y34290
X107696Y69850
X93472Y69977
X116589Y49560
X104648Y53086
X46736Y69871
X42727Y69905
X69088Y62992
X69088Y70104
X61087Y70866
X27813Y80459
X67845Y80999
X78105Y80899
X31369Y75184
X69215Y51308
X26543Y75586
X110490Y43942
X65405Y43815
X61595Y44577
X57785Y48194
X63373Y48387
X109982Y58420
X109580Y44743
X108712Y36830
X57256Y54610
X26416Y40513
X26498Y72263
X33147Y72263
X56642Y34798
X115824Y32766
X56388Y45847
X60512Y77373
X75438Y77343
X73025Y90043
X63225Y76687
X81534Y76433
X87122Y88011
X65405Y88011
X70866Y88921
X60325Y88921
X93726Y77343
X64516Y75524
X57236Y84455
X64135Y88011
X23474Y45253
X23770Y60579
X42807Y62730
X39243Y78613
X13081Y68707
X72136Y88921
X92202Y80264
X91948Y88900
X71882Y77343
X119380Y88646
X119126Y79248
X76835Y86995
X118216Y86868
X118364Y61976
X74041Y77343
X86360Y75311
X30988Y68051
X86360Y67818
X38756Y71247
X69088Y71882
X70612Y86995
X74295Y83312
X79502Y76200
X76708Y76200
X66294Y67056
X6858Y66950
X67310Y66167
X66421Y82402
X67945Y82402
X82444Y83312
X75565Y86995
X62865Y86995
X61849Y77343
X70612Y77343
X41148Y50800
X29591Y48260
X29662Y59679
X14859Y53975
X84582Y84836
X94742Y84836
X94742Y76327
X19685Y74549
X47752Y77978
X17399Y68961
X77978Y73152
X30353Y65130
X42799Y64008
X25589Y61498
X25400Y39370
X33147Y62738
X24679Y62611
X24765Y44344
X37211Y43307
X85598Y50419
X68961Y45720
X71374Y51308
X63246Y53340
X102362Y47752
X102362Y31684
X94996Y49022
X104775Y55245
X85598Y49149
X50800Y47498
X99187Y50927
X106786Y42905
X106786Y58166
X90932Y58166
X93472Y66294
X89154Y66294
X93472Y61976
X87630Y61849
X50800Y56642
X52705Y56642
X18796Y58420
X19558Y62357
X45741Y62103
X67945Y62103
X17886Y55224
X59055Y83312
X70485Y83312
X82444Y80772
X15439Y63318
X74803Y68707
X24066Y86932
X82550Y68707
X33147Y64008
X28448Y57404
X82931Y52197
X90805Y52197
X92456Y60833
X48260Y52832
X52705Y52832
X48260Y57912
X48260Y44577
X52705Y44577
X82931Y59593
X28448Y69977
X24384Y70231
X24384Y79756
X36703Y77343
X28594Y79269
X33274Y79375
X27432Y54102
X44831Y60325
X48006Y69871
X51684Y69875
X22225Y56261
X22606Y73406
X13208Y58039
X59750Y57758
X49784Y57658
X49890Y48662
X58420Y50546
X89662Y55753
X89535Y47879
X81534Y47879
X81564Y57758
X63627Y57758
X61087Y73619
M30